<svg width="24" height="24" viewBox="0 0 51 51" fill="none" xmlns="http://www.w3.org/2000/svg">
<rect x="1.63574" y="2.17773" width="47.1579" height="47.1579" rx="8.5" fill="white"/>
<rect x="1.63574" y="2.17773" width="47.1579" height="47.1579" rx="8.5" stroke="#0536A3" stroke-width="3"/>
<path d="M14.358 25.6071C14.358 18.4242 20.1641 12.6181 27.347 12.6181C30.0163 12.6181 32.5069 13.4136 34.5787 14.8067C36.4361 12.9818 37.0498 10.7444 34.5299 8.7181C32.3251 7.77315 29.8864 7.25684 27.347 7.25684C17.2123 7.25684 9 15.4692 9 25.6039C9 35.7385 17.2123 43.9509 27.347 43.9509C31.7925 43.9509 35.8743 42.3597 39.0599 39.7197C42.3623 36.9822 38.878 32.8355 35.7931 35.4723C33.5201 37.4141 30.5683 38.5896 27.3503 38.5896C20.1641 38.5961 14.358 32.7738 14.358 25.6071Z" fill="#00E2FF"/>
<path d="M38.6072 19.1584C39.8671 17.4665 40.4971 15.6741 40.2503 14.0147C39.8184 11.2448 36.8667 9.71859 34.5254 8.72168C36.6978 10.4622 35.8178 13.034 34.3435 15.1415L27.3262 25.1106L27.2937 25.2437C28.6868 26.6855 30.9274 29.6243 32.8336 27.0687L38.6072 19.1584Z" fill="url(#paint0_linear_16791_34052)"/>
<path d="M27.0297 24.8114C26.4322 24.2301 24.9904 22.8046 22.7823 20.3497C20.3598 17.6609 16.015 21.0478 18.8174 24.2659L27.3934 34.0693L32.8358 27.0682C30.9946 29.5394 28.3578 26.0876 27.0297 24.8114Z" fill="url(#paint1_linear_16791_34052)"/>
<defs>
<linearGradient id="paint0_linear_16791_34052" x1="9.00196" y1="25.606" x2="40.3973" y2="25.606" gradientUnits="userSpaceOnUse">
<stop stop-color="#00AAFF"/>
<stop offset="0.9999" stop-color="#00ADFF"/>
</linearGradient>
<linearGradient id="paint1_linear_16791_34052" x1="17.9101" y1="26.7203" x2="32.8378" y2="26.7203" gradientUnits="userSpaceOnUse">
<stop stop-color="#00C0FF"/>
<stop offset="0.1453" stop-color="#039BFF"/>
<stop offset="0.3074" stop-color="#0579FF"/>
<stop offset="0.4731" stop-color="#075EFF"/>
<stop offset="0.6416" stop-color="#084BFF"/>
<stop offset="0.8145" stop-color="#0940FF"/>
<stop offset="0.9987" stop-color="#093CFF"/>
</linearGradient>
</defs>
</svg>
